<?xml version="1.0" encoding="utf-8"?>
<!-- Generator: Adobe Illustrator 25.4.1, SVG Export Plug-In . SVG Version: 6.00 Build 0)  -->
<svg version="1.1" xmlns="http://www.w3.org/2000/svg" xmlns:xlink="http://www.w3.org/1999/xlink" x="0px" y="0px"
	 viewBox="0 0 1280 1024" style="enable-background:new 0 0 1280 1024;" xml:space="preserve">
<style type="text/css">
	.st0{fill:none;}
	.st1{fill:#2043B2;}
	.st2{fill:#B1B9DD;}
	.st3{fill:#FFFFFF;stroke:#000000;stroke-miterlimit:10;}
	.st4{fill:none;stroke:#000000;stroke-miterlimit:10;}
	.st5{fill:url(#New_Pattern);}
	.st6{fill:#434C68;}
</style>
<pattern  width="70" height="48" patternUnits="userSpaceOnUse" id="New_Pattern" viewBox="0 -48 70 48" style="overflow:visible;">
	<g>
		<rect y="-48" class="st0" width="70" height="48"/>
		<g>
			<circle class="st1" cx="3.5" cy="-9" r="2.5"/>
			<circle class="st1" cx="10.5" cy="-9" r="2.5"/>
			<circle class="st1" cx="17.5" cy="-9" r="2.5"/>
			<circle class="st1" cx="24.5" cy="-9" r="2.5"/>
			<circle class="st1" cx="31.5" cy="-9" r="2.5"/>
			<circle class="st1" cx="38.5" cy="-9" r="2.5"/>
			<circle class="st1" cx="45.5" cy="-9" r="2.5"/>
			<circle class="st1" cx="52.5" cy="-9" r="2.5"/>
			<circle class="st1" cx="59.5" cy="-9" r="2.5"/>
			<circle class="st1" cx="66.5" cy="-9" r="2.5"/>
			<circle class="st1" cx="3.5" cy="-3" r="2.5"/>
			<circle class="st1" cx="10.5" cy="-3" r="2.5"/>
			<circle class="st1" cx="17.5" cy="-3" r="2.5"/>
			<circle class="st1" cx="24.5" cy="-3" r="2.5"/>
			<circle class="st1" cx="31.5" cy="-3" r="2.5"/>
			<circle class="st1" cx="38.5" cy="-3" r="2.5"/>
			<circle class="st1" cx="45.5" cy="-3" r="2.5"/>
			<circle class="st1" cx="52.5" cy="-3" r="2.5"/>
			<circle class="st1" cx="59.5" cy="-3" r="2.5"/>
			<circle class="st1" cx="66.5" cy="-3" r="2.5"/>
		</g>
		<g>
			<circle class="st1" cx="3.5" cy="-33" r="2.5"/>
			<circle class="st1" cx="10.5" cy="-33" r="2.5"/>
			<circle class="st1" cx="17.5" cy="-33" r="2.5"/>
			<circle class="st1" cx="24.5" cy="-33" r="2.5"/>
			<circle class="st1" cx="31.5" cy="-33" r="2.5"/>
			<circle class="st1" cx="38.5" cy="-33" r="2.5"/>
			<circle class="st1" cx="45.5" cy="-33" r="2.5"/>
			<circle class="st1" cx="52.5" cy="-33" r="2.5"/>
			<circle class="st1" cx="59.5" cy="-33" r="2.5"/>
			<circle class="st1" cx="66.5" cy="-33" r="2.5"/>
			<circle class="st1" cx="3.5" cy="-27" r="2.5"/>
			<circle class="st1" cx="10.5" cy="-27" r="2.5"/>
			<circle class="st1" cx="17.5" cy="-27" r="2.5"/>
			<circle class="st1" cx="24.5" cy="-27" r="2.5"/>
			<circle class="st1" cx="31.5" cy="-27" r="2.5"/>
			<circle class="st1" cx="38.5" cy="-27" r="2.5"/>
			<circle class="st1" cx="45.5" cy="-27" r="2.5"/>
			<circle class="st1" cx="52.5" cy="-27" r="2.5"/>
			<circle class="st1" cx="59.5" cy="-27" r="2.5"/>
			<circle class="st1" cx="66.5" cy="-27" r="2.5"/>
			<circle class="st1" cx="3.5" cy="-21" r="2.5"/>
			<circle class="st1" cx="10.5" cy="-21" r="2.5"/>
			<circle class="st1" cx="17.5" cy="-21" r="2.5"/>
			<circle class="st1" cx="24.5" cy="-21" r="2.5"/>
			<circle class="st1" cx="31.5" cy="-21" r="2.5"/>
			<circle class="st1" cx="38.5" cy="-21" r="2.5"/>
			<circle class="st1" cx="45.5" cy="-21" r="2.5"/>
			<circle class="st1" cx="52.5" cy="-21" r="2.5"/>
			<circle class="st1" cx="59.5" cy="-21" r="2.5"/>
			<circle class="st1" cx="66.5" cy="-21" r="2.5"/>
			<circle class="st1" cx="3.5" cy="-15" r="2.5"/>
			<circle class="st1" cx="10.5" cy="-15" r="2.5"/>
			<circle class="st1" cx="17.5" cy="-15" r="2.5"/>
			<circle class="st1" cx="24.5" cy="-15" r="2.5"/>
			<circle class="st1" cx="31.5" cy="-15" r="2.5"/>
			<circle class="st1" cx="38.5" cy="-15" r="2.5"/>
			<circle class="st1" cx="45.5" cy="-15" r="2.5"/>
			<circle class="st1" cx="52.5" cy="-15" r="2.5"/>
			<circle class="st1" cx="59.5" cy="-15" r="2.5"/>
			<circle class="st1" cx="66.5" cy="-15" r="2.5"/>
		</g>
		<g>
			<circle class="st1" cx="3.5" cy="-45" r="2.5"/>
			<circle class="st1" cx="10.5" cy="-45" r="2.5"/>
			<circle class="st1" cx="17.5" cy="-45" r="2.5"/>
			<circle class="st1" cx="24.5" cy="-45" r="2.5"/>
			<circle class="st1" cx="31.5" cy="-45" r="2.5"/>
			<circle class="st1" cx="38.5" cy="-45" r="2.5"/>
			<circle class="st1" cx="45.5" cy="-45" r="2.5"/>
			<circle class="st1" cx="52.5" cy="-45" r="2.5"/>
			<circle class="st1" cx="59.5" cy="-45" r="2.5"/>
			<circle class="st1" cx="66.5" cy="-45" r="2.5"/>
			<circle class="st1" cx="3.5" cy="-39" r="2.5"/>
			<circle class="st1" cx="10.5" cy="-39" r="2.5"/>
			<circle class="st1" cx="17.5" cy="-39" r="2.5"/>
			<circle class="st1" cx="24.5" cy="-39" r="2.5"/>
			<circle class="st1" cx="31.5" cy="-39" r="2.5"/>
			<circle class="st1" cx="38.5" cy="-39" r="2.5"/>
			<circle class="st1" cx="45.5" cy="-39" r="2.5"/>
			<circle class="st1" cx="52.5" cy="-39" r="2.5"/>
			<circle class="st1" cx="59.5" cy="-39" r="2.5"/>
			<circle class="st1" cx="66.5" cy="-39" r="2.5"/>
		</g>
	</g>
</pattern>
<g id="bg">
	<path class="st2" d="M610.95,1.81c-4.73,1.2-9.46,2.29-14.25,3.2c-95.94,18.35-319.66,170.72-366.07,262.7
		C183.02,362.09,26.85,532.74,52.56,623.64S207.3,1038.1,349.42,1004.4c142.12-33.7,538.25,35.79,715.37-121.26
		c151.81-134.61,257.45-254.31,181.4-388.85c-20.95-37.06-51.94-67.27-88.74-88.17c-102.84-58.41-364.02-220.94-385-314.64
		C750.94-4.57,635.41-4.41,610.95,1.81z"/>
</g>
<g id="hands">
	<path class="st3" d="M562.54,480.53c0,0,41.37-24.88,51.84-24.48c10.47,0.4,183.78,48.55,183.78,48.55L1280,100.15v362.23
		c0,0-99.03,84.6-112.36,88.45l-131.61,86.61L883.87,741.5L668.11,888.25l-62.3,38.15c0,0-95.32-1.18-139.08-38.15
		c0,0-72.38-47.54-95.17-88.97"/>
	<path class="st3" d="M321.09,467.05l-127.6,225.34c0,0,186.64,117.48,196.16,115.56c9.52-1.93,182.83-184.89,236.16-190.67
		c0,0,97.13,55.85,104.75,67.41c0,0,41.9,0,43.8-11.56c0,0,9.52-9.98,0-24.25L670.57,535.04c0,0-140.57-71.84-148.84-67.98
		c-8.28,3.85-92.07,15.41-122.54,28.89C374.42,486.31,321.09,467.05,321.09,467.05z"/>
	<path class="st3" d="M883.87,741.5c0,0,5.96,52.05-10.35,66.47l-58.21,45.24l-57.13,38.52c0,0-38.09,23.11-49.52,23.11
		c-11.43,0-49.52-32.74-49.52-36.59c0-3.85,28.57-78.97,28.57-78.97l114.27-73.19C801.97,726.1,855.3,724.17,883.87,741.5z"/>
	<line class="st4" x1="801.97" y1="754.99" x2="873.52" y2="807.97"/>
	<line class="st4" x1="746.74" y1="797.36" x2="815.31" y2="853.21"/>
	<line class="st4" x1="712.46" y1="849.36" x2="763.33" y2="888.25"/>
	<polyline class="st3" points="68.75,290.83 251.58,404.46 101.13,670.24 0.19,618.24 	"/>
	<line class="st4" x1="622.95" y1="701.06" x2="428.48" y2="859.94"/>
	<line class="st4" x1="625.92" y1="799.28" x2="499.16" y2="903.29"/>
	<line class="st4" x1="662.95" y1="843.58" x2="562.54" y2="922.7"/>
</g>
<g id="pattern">
	<polygon class="st5" points="330.62,445.87 140.37,781.48 60.18,732.84 251.58,401.52 	"/>
</g>
<g id="DETAILS">
	<polygon class="st4" points="486.04,141.85 486.04,283.18 546.34,283.18 571.53,333.2 596.29,283.12 837.75,283.12 837.75,141.85 	
		"/>
	<line class="st4" x1="535.35" y1="177.19" x2="792.8" y2="177.19"/>
	<line class="st4" x1="535.35" y1="213.79" x2="792.8" y2="213.79"/>
	<line class="st4" x1="535.35" y1="250.38" x2="792.8" y2="250.38"/>
	<g>
		<g>
			<path d="M365.56,357.27c0.04,6.05,1.82,12.26,5.37,17.19c3.72,5.16,8.6,8.94,14.56,11.17c11.26,4.22,25.03,0.44,32.57-8.92
				c4.08-5.06,6.46-10.85,7.01-17.35c0.52-6.07-1.06-12.45-4.2-17.65c-6.6-10.93-19.41-16.38-31.87-13.82
				C375.34,330.7,365.66,343.53,365.56,357.27c-0.02,3.14,2.78,6.14,6,6c3.27-0.15,5.98-2.64,6-6c0-0.58,0.02-1.17,0.06-1.75
				c0.02-0.33,0.11-0.7,0.1-1.03c0.06,1.32-0.17,1.09-0.08,0.57c0.22-1.22,0.48-2.43,0.86-3.61c0.16-0.51,0.45-1.04,0.56-1.57
				c-0.31,1.48-0.33,0.76-0.08,0.22c0.09-0.2,0.19-0.4,0.29-0.6c0.54-1.08,1.15-2.11,1.84-3.1c0.11-0.16,0.79-1,0.11-0.18
				c-0.69,0.83,0.02-0.02,0.14-0.16c0.35-0.42,0.71-0.82,1.08-1.22c0.37-0.39,0.76-0.77,1.16-1.14c0.2-0.18,0.4-0.36,0.61-0.54
				c0.37-0.32,1.43-0.92-0.08,0.02c0.92-0.58,1.77-1.25,2.72-1.79c0.48-0.27,0.96-0.52,1.45-0.75c0.17-0.08,1.19-0.52,0.18-0.1
				c-1.05,0.43,0.31-0.11,0.51-0.18c1.05-0.38,2.12-0.68,3.21-0.9c0.53-0.11,2.43-0.22,0.41-0.11c0.69-0.04,1.37-0.13,2.06-0.15
				c1.14-0.03,2.33,0.22,3.45,0.15c-0.08,0.01-1.57-0.26-0.59-0.07c0.33,0.06,0.66,0.11,1,0.18c0.6,0.12,1.2,0.27,1.79,0.44
				c0.53,0.15,1.06,0.33,1.58,0.52c0.25,0.09,0.51,0.22,0.77,0.3c-1.51-0.44-0.83-0.37-0.38-0.14c1.03,0.52,2.03,1.04,3,1.67
				c0.45,0.3,0.87,0.65,1.33,0.94c-1.6-1-0.12-0.06,0.29,0.3c0.89,0.8,1.72,1.66,2.48,2.58c0.37,0.45,0.57,1.17-0.13-0.19
				c0.09,0.18,0.27,0.37,0.38,0.53c0.31,0.45,0.61,0.9,0.89,1.37c0.28,0.47,0.55,0.95,0.8,1.43c0.15,0.29,0.3,0.59,0.43,0.89
				c0.23,0.49,0.27,1.35-0.08-0.22c0.24,1.07,0.75,2.11,1.02,3.19c0.13,0.55,0.25,1.1,0.35,1.66c0.03,0.19,0.23,1.33,0.04,0.22
				c-0.2-1.14,0.02,0.35,0.03,0.58c0.08,1.16,0.08,2.33,0,3.5c-0.02,0.29-0.06,0.57-0.08,0.86c-0.06,0.84,0.27-1.61,0.06-0.4
				c-0.12,0.67-0.24,1.34-0.4,2c-0.26,1.08-0.78,2.11-1.02,3.19c0.28-1.26,0.43-0.97,0.22-0.52c-0.14,0.3-0.28,0.6-0.42,0.9
				c-0.29,0.59-0.61,1.17-0.95,1.73c-0.28,0.47-0.58,0.92-0.89,1.37c-0.12,0.17-0.29,0.35-0.38,0.53c0.7-1.35,0.5-0.63,0.13-0.19
				c-0.73,0.88-1.52,1.7-2.36,2.47c-0.2,0.18-0.4,0.36-0.61,0.54c-0.14,0.12-1.02,0.78-0.15,0.14c0.88-0.65-0.61,0.42-0.84,0.58
				c-0.95,0.63-1.95,1.2-2.98,1.69c-0.46,0.22-1.39,0.38,0.23-0.08c-0.2,0.06-0.41,0.17-0.61,0.24c-0.52,0.19-1.04,0.37-1.57,0.53
				c-0.53,0.16-1.07,0.3-1.62,0.42c-0.33,0.07-0.66,0.14-0.99,0.2c-0.58,0.1-1.33-0.05,0.25-0.02c-1.14-0.02-2.29,0.18-3.45,0.15
				c-0.57-0.02-1.14-0.06-1.72-0.11c-1.27-0.11,1.49,0.27,0.25,0.04c-0.33-0.06-0.66-0.11-1-0.18c-1.31-0.27-2.57-0.67-3.82-1.13
				c-0.43-0.16-0.71-0.5,0.52,0.23c-0.32-0.19-0.7-0.32-1.04-0.49c-0.59-0.29-1.16-0.61-1.72-0.95c-0.51-0.31-1.01-0.64-1.5-0.99
				c-0.45-0.33-0.89-0.99,0.18,0.15c-0.21-0.22-0.52-0.42-0.75-0.63c-0.98-0.85-1.89-1.79-2.72-2.79c-0.14-0.16-0.26-0.35-0.41-0.51
				c1.26,1.37,0.25,0.29-0.03-0.1c-0.34-0.5-0.66-1.01-0.96-1.53c-0.3-0.52-0.58-1.06-0.84-1.6c-0.14-0.3-0.26-0.61-0.41-0.9
				c0.8,1.54,0.27,0.63,0.11,0.2c-0.46-1.26-0.82-2.57-1.07-3.89c-0.04-0.22-0.07-0.45-0.12-0.67c-0.19-1.07,0.15,1.58,0.01-0.11
				c-0.06-0.7-0.08-1.4-0.09-2.1c-0.02-3.14-2.74-6.15-6-6C368.33,351.42,365.54,353.91,365.56,357.27z"/>
		</g>
	</g>
	<g>
		<g>
			<path d="M202.78,887.88c0.33,16.65,10.36,31.58,26.13,37.37c15.39,5.66,33.25,0.46,43.49-12.23
				c10.36-12.83,11.84-31.31,3.36-45.54c-8.45-14.18-24.94-21.47-41.11-18.54C215.99,852.32,203.14,869.36,202.78,887.88
				c-0.13,6.44,9.87,6.44,10,0c0.24-12.32,7.61-23.71,19.4-27.95c11.5-4.13,24.52-0.5,32.32,8.87
				c17.13,20.58-1.11,53.42-27.86,48.25c-14.01-2.71-23.59-15.15-23.86-29.18C212.65,881.45,202.65,881.43,202.78,887.88z"/>
		</g>
	</g>
	<g>
		<g>
			<path d="M1031.23,872.47c0.33,13.98,8.52,26.6,21.73,31.69c13.3,5.13,28.77,0.84,37.72-10.16c8.88-10.92,10.15-26.66,2.99-38.82
				c-7.14-12.12-21.16-18.42-34.96-16.01C1042.6,841.97,1031.6,856.54,1031.23,872.47c-0.15,6.44,9.85,6.44,10,0
				c0.3-12.89,10.34-23.89,23.57-23.89c13,0,23.57,10.99,23.57,23.89c0,12.88-10.57,23.92-23.57,23.89
				c-13.22-0.03-23.26-10.97-23.57-23.89C1041.08,866.05,1031.07,866.02,1031.23,872.47z"/>
		</g>
	</g>
	<polygon class="st5" points="964.81,361.12 1039.84,444.28 968.77,506.06 894.34,422.75 	"/>
	<path class="st6" d="M1085.32,444.32l69.92,83.89c12.63,15.16,10.73,37.8-4.25,50.58l-68.93,58.81
		c-14.33,12.23-35.71,10.54-48-3.78l-70.41-82.06c-10.98-12.79-9.75-32.13,2.76-43.4l74.6-67.23
		C1054.04,429.38,1074.08,430.83,1085.32,444.32z"/>
	<g>
		<ellipse cx="120.17" cy="718.39" rx="27.61" ry="27.93"/>
	</g>
</g>
</svg>
